<svg width="128" height="128" viewBox="0 0 128 128" fill="none" xmlns="http://www.w3.org/2000/svg">
  <rect width="128" height="128" rx="30" fill="#163A3A"/>
  <circle cx="35" cy="34" r="11" fill="#F5F1E8"/>
  <circle cx="64" cy="34" r="11" fill="#C66A3D"/>
  <circle cx="93" cy="34" r="11" fill="#6CB9AC"/>
  <path d="M28 67C28 61.4772 32.4772 57 38 57H90C95.5228 57 100 61.4772 100 67V73C100 78.5228 95.5228 83 90 83H38C32.4772 83 28 78.5228 28 73V67Z" fill="#F5F1E8"/>
  <path d="M28 91C28 88.7909 29.7909 87 32 87H96C98.2091 87 100 88.7909 100 91V93C100 95.2091 98.2091 97 96 97H32C29.7909 97 28 95.2091 28 93V91Z" fill="#6CB9AC"/>
</svg>
