<svg width="1200" height="630" viewBox="0 0 1200 630" fill="none" xmlns="http://www.w3.org/2000/svg">
  <rect width="1200" height="630" fill="#F3EFE7"/>
  <circle cx="152" cy="115" r="180" fill="#E5B39A" fill-opacity="0.45"/>
  <circle cx="1050" cy="96" r="162" fill="#87C5BA" fill-opacity="0.38"/>
  <rect x="62" y="56" width="1076" height="518" rx="34" fill="#FFF9EF" stroke="#E0D8C7"/>
  <text x="100" y="130" fill="#163A3A" font-family="Arial, sans-serif" font-size="22" font-weight="700" letter-spacing="3">RECRUITMENT IMPACT DASHBOARD</text>
  <text x="100" y="232" fill="#1E2430" font-family="Georgia, serif" font-size="64" font-weight="700">Measure hiring like an</text>
  <text x="100" y="306" fill="#1E2430" font-family="Georgia, serif" font-size="64" font-weight="700">operations system.</text>
  <text x="100" y="366" fill="#5F6877" font-family="Arial, sans-serif" font-size="28">Speed, quality, efficiency, business impact, candidate search</text>
  <text x="100" y="404" fill="#5F6877" font-family="Arial, sans-serif" font-size="28">and vacancy visibility in one polished recruitment dashboard.</text>
  <rect x="100" y="458" width="220" height="72" rx="20" fill="#163A3A"/>
  <text x="132" y="503" fill="#FFF9EF" font-family="Arial, sans-serif" font-size="28" font-weight="700">Board-ready KPIs</text>
  <rect x="704" y="146" width="354" height="154" rx="26" fill="#FFFDF8" stroke="#E7DEC9"/>
  <text x="734" y="190" fill="#5F6877" font-family="Arial, sans-serif" font-size="18" font-weight="700" letter-spacing="2">EXECUTIVE SIGNAL</text>
  <text x="734" y="258" fill="#163A3A" font-family="Arial, sans-serif" font-size="76" font-weight="700">78</text>
  <text x="826" y="258" fill="#5F6877" font-family="Arial, sans-serif" font-size="24">health score</text>
  <rect x="704" y="334" width="354" height="170" rx="26" fill="#FFFDF8" stroke="#E7DEC9"/>
  <text x="734" y="378" fill="#5F6877" font-family="Arial, sans-serif" font-size="18" font-weight="700" letter-spacing="2">VACANCY OPS</text>
  <rect x="734" y="402" width="294" height="16" rx="8" fill="#EAE3D3"/>
  <rect x="734" y="402" width="228" height="16" rx="8" fill="#6CB9AC"/>
  <rect x="734" y="438" width="294" height="16" rx="8" fill="#EAE3D3"/>
  <rect x="734" y="438" width="182" height="16" rx="8" fill="#C66A3D"/>
  <rect x="734" y="474" width="294" height="16" rx="8" fill="#EAE3D3"/>
  <rect x="734" y="474" width="244" height="16" rx="8" fill="#163A3A"/>
</svg>
